<?xml version="1.0"?><svg width="640" height="480" xmlns="http://www.w3.org/2000/svg">
 <title>Cute Cloud BW</title>
 <defs>
  <filter id="filter3941" color-interpolation-filters="sRGB" height="1.96" width="1.96" y="-0.48" x="-0.48">
   <feGaussianBlur stdDeviation="13.142858" id="feGaussianBlur3943"/>
  </filter>
 </defs>
 <metadata id="metadata7">image/svg+xmlCute Cloud2013-05-30Urs RoeschOpen ClipartenCuteCloudCute cloud</metadata>
 <g>
  <title>Layer 1</title>
  <line id="svg_1" y2="624" x2="691" y1="646" x1="693" stroke-width="15" stroke="#000000" fill="none"/>
  <path fill="#000000" id="path3113" d="m293.260559,14.037214c-42.34433,0.01545 -82.795761,27.422602 -99.313354,66.15539c-27.893036,-20.111107 -66.95462,-18.752174 -96.545685,-3.008904c-28.851059,14.163719 -53.40152,41.370842 -56.662376,74.367416c-0.667793,8.768295 1.0196,17.507385 3.219215,25.941757c-35.05489,17.787262 -56.39282,61.353149 -44.769806,99.787186c5.435928,17.527161 18.305599,32.264343 34.253693,40.946747c-13.37212,21.940521 -21.946144,49.834412 -12.973625,75.058502c9.821198,25.316772 38.000786,39.350861 64.320442,38.203979c14.397202,-0.05838 28.618423,-3.338531 42.117691,-8.181976c29.356689,44.762604 89.216171,67.100555 140.719376,51.835449c20.281952,-6.611877 38.528473,-19.653595 50.797546,-37.107727c40.034241,27.241425 95.062256,26.740997 137.272675,4.614197c28.904297,-15.665131 51.345276,-45.875183 52.570251,-79.433197c-1.11084,-3.754852 3.430481,-1.297943 5.349121,-2.307526c52.907593,-5.83493 96.140442,-56.154297 94.00116,-109.426834c0.328796,-4.815948 -2.675781,-11.427765 2.656067,-14.218643c23.990479,-21.560181 29.605652,-60.468933 13.171387,-88.152527c-14.75177,-27.812332 -45.006409,-46.324127 -76.348755,-47.644447c-2.277527,-39.51741 -33.413757,-73.87722 -71.30188,-83.39151c-37.650269,-10.541876 -81.204132,0.200016 -108.06189,28.718018c-17.943481,-21.747337 -46.427155,-33.54513 -74.471252,-32.75535l0,0z"/>
  <path fill="#ffffff" id="path3003" d="m292.33667,25.320183c-40.581299,-0.18726 -83.285965,25.249611 -96.549759,73.988396c-57.292252,-62.513939 -177.683609,16.093643 -141.028641,84.343552c-60.922188,23.382889 -72.423332,108.603882 -9.067474,130.888123c-57.628841,83.89151 9.697342,129.970062 82.465668,96.710663c30.701263,61.166962 141.280579,90.253357 184.434448,12.501312c55.552826,51.047516 186.141815,25.650848 182.744293,-71.761719c54.172058,3.592072 108.989563,-49.412048 97.408264,-115.409027c57.685608,-41.133926 14.963257,-128.514221 -59.099487,-123.457092c4.520447,-83.880142 -112.398468,-122.373444 -169.840637,-48.556557c-15.438812,-26.290047 -42.915375,-39.115902 -71.466675,-39.24765z"/>
  <path fill="#000000" id="path3127" d="m229.473083,243.456726a12.140441,12.140441 0 1 1-24.280884,0a12.140441,12.140441 0 1 124.280884,0z"/>
  <path fill="#000000" id="path3129" d="m435.912781,227.865021a12.140441,12.140441 0 1 1-24.280853,0a12.140441,12.140441 0 1 124.280853,0z"/>
  <path fill="#000000" id="path3131" d="m376.503784,289.421997l-7.940765,1.824219l-0.53653,0.670685c0.734467,9.259857 -0.000488,18.764618 -3.165558,27.470673c-4.477966,16.080231 -22.836304,23.909882 -38.389191,21.032227c-20.449951,-2.829132 -33.998932,-21.963623 -39.033051,-40.562164l-8.28949,1.904724c5.32489,18.644257 16.310059,36.493378 34.660278,44.022827c17.214661,6.667084 39.939056,4.501862 51.990387,-10.489319c9.940033,-12.843384 12.040771,-29.881836 10.703918,-45.873871z"/>
  <path fill="#bfbfbf" filter="url(#filter3941)" id="path3159" d="m225.771484,344.655396a28.206491,28.206491 0 1 1-56.412979,0a28.206491,28.206491 0 1 156.412979,0z"/>
  <path fill="#bfbfbf" filter="url(#filter3941)" id="path3945" d="m515.194641,290.695129a28.206491,28.206491 0 1 1-56.412994,0a28.206491,28.206491 0 1 156.412994,0z"/>
 </g>
</svg>