<svg id="Layer_1" enable-background="new 0 0 110 110" height="512" viewBox="0 0 110 110" width="512" xmlns="http://www.w3.org/2000/svg" xmlns:x="http://ns.adobe.com/Extensibility/1.0/" xmlns:i="http://ns.adobe.com/AdobeIllustrator/10.0/" xmlns:graph="http://ns.adobe.com/Graphs/1.0/"><path d="m88.5011139 35.7330551c-1.1649857-2.0221939-2.8458786-3.7445354-4.926178-4.9512691-.0082779-.0085335-.0166092-.0085335-.0249405-.0166588l-22.9581795-13.2558003c-.033268-.0166588-.0582542-.0333176-.0915222-.0499763-4.1772537-2.3630877-9.3030815-2.3464298-13.4470177.0751667l-20.3619785 11.8325043-.19137.108078c-2.0802975 1.2067337-3.7528648 2.9124165-4.909523 4.9264851-1.1399994 1.9555588-1.7807465 4.2105713-1.8140125 6.5484657v.1665878l-.0748634 26.378334v.0495682c0 4.7932129 2.5545616 9.2284775 6.690218 11.6496658.0249386.0170593.0415974.0251923.0665836.0418472l6.2908192 3.6279221 16.6673126 9.6193466c2.0969582 1.214859 4.4435387 1.8141632 6.7817917 1.8141632 2.338253-.0085297 4.6681747-.6240845 6.7568016-1.8308182l20.5533447-11.9409942c.0083313-.0081253.0166092-.0081253.0249405-.016655 4.127327-2.413063 6.6819382-6.831665 6.6902695-11.6244736l.0748596-26.378334v-.0499763c-.0000001-2.3964043-.6407471-4.7095146-1.7973557-6.7231789z" fill="#dbd8dd"/><path d="m62.5160904 47.4891739c-3.9970055 1.9401207-8.6554794 1.9754677-12.6814346.0962944l-28.2442513-13.1838837 26.247654 17.0328407c3.95998 2.5698967 6.451004 6.8796082 6.701088 11.5935936l1.6591072 31.2694664 2.2022896-32.0276375c.3086929-4.489296 2.6493835-8.5921974 6.3567963-11.1421852l23.3359984-16.0528259z" fill="#ededed"/><path d="m55.045784 29.2705116c-3.2176018 0-5.8260002 1.6540794-5.8260002 3.694561 0 2.0400696 2.6083984 3.6941528 5.8260002 3.6941528 3.217556 0 5.8259506-1.6540833 5.8259506-3.6941528 0-2.0404815-2.6083946-3.694561-5.8259506-3.694561z" fill="#304551"/><path d="m71.7477493 58.1292343c-1.8242111-.9130669-4.3739395.4849052-5.6944962 3.1232986-1.3205948 2.6379738-.9120789 5.5171051.9121323 6.4301682 1.8246307.9133606 4.3743591-.4846115 5.6949997-3.1226044 1.3205643-2.6383895.911995-5.5175056-.9126358-6.4308624z" fill="#4288b9"/><path d="m82.1836472 65.9939651c-1.8242111-.913063-4.3739395.4849091-5.6945038 3.1232986-1.3205872 2.6379776-.9120712 5.5171051.9121399 6.4301758 1.8246307.913353 4.3743591-.4846191 5.6949997-3.1226044 1.3205566-2.6383971.9119949-5.5175094-.9126358-6.43087z" fill="#4288b9"/><g fill="#de594e"><path d="m41.0224724 57.3491249c1.8242111-.9130669 4.3739357.4849014 5.6944962 3.1232948 1.3205948 2.6379776.912075 5.5171051-.9121361 6.4301758-1.8246269.913353-4.3743553-.4846115-5.6949959-3.1226082-1.3205643-2.6383934-.911995-5.5175056.9126358-6.4308624z"/><path d="m28.5318279 65.9939651c1.8242111-.913063 4.3739376.4849091 5.6945019 3.1232986 1.320591 2.6379776.9120712 5.5171051-.9121399 6.4301758-1.8246288.913353-4.3743553-.4846191-5.6949978-3.1226044-1.3205604-2.6383971-.911993-5.5175094.9126358-6.43087z"/><path d="m29.0292683 52.292881c1.8242111-.9130669 4.3739376.4849014 5.6945019 3.1232948 1.320591 2.6379776.9120712 5.5171051-.9121399 6.430172-1.8246288.9133568-4.3743553-.4846115-5.6949978-3.1226044-1.3205605-2.6383934-.9119931-5.5175056.9126358-6.4308624z"/><path d="m39.8669128 71.5054932c1.8242111-.913063 4.3739395.4849091 5.6945 3.1232986 1.3205948 2.6379776.912075 5.5171051-.9121399 6.4301758-1.8246269.913353-4.3743553-.4846191-5.6949959-3.1226044-1.3205604-2.6383972-.9119911-5.5175094.9126358-6.43087z"/></g></svg>