<?xml version="1.0" encoding="us-ascii" standalone="no"?><svg xmlns="http://www.w3.org/2000/svg" xmlns:xlink="http://www.w3.org/1999/xlink" contentStyleType="text/css" height="238px" preserveAspectRatio="none" style="width:349px;height:238px;background:#FFFFFF;" version="1.1" viewBox="0 0 349 238" width="349px" zoomAndPan="magnify"><defs/><g><text fill="#000000" font-family="sans-serif" font-size="14" font-weight="bold" lengthAdjust="spacing" textLength="174" x="86" y="29.9659">Authentication Sequence</text><line style="stroke:#181818;stroke-width:0.5;stroke-dasharray:5.0,5.0;" x1="28" x2="28" y1="79.1358" y2="200.2539"/><line style="stroke:#181818;stroke-width:0.5;stroke-dasharray:5.0,5.0;" x1="202" x2="202" y1="79.1358" y2="200.2539"/><rect fill="#E2E2F0" height="33.0679" rx="2.5" ry="2.5" style="stroke:#181818;stroke-width:0.5;" width="46" x="5" y="45.0679"/><text fill="#000000" font-family="sans-serif" font-size="14" lengthAdjust="spacing" textLength="32" x="12" y="67.0339">Alice</text><rect fill="#E2E2F0" height="33.0679" rx="2.5" ry="2.5" style="stroke:#181818;stroke-width:0.5;" width="46" x="5" y="199.2539"/><text fill="#000000" font-family="sans-serif" font-size="14" lengthAdjust="spacing" textLength="32" x="12" y="221.2198">Alice</text><rect fill="#E2E2F0" height="33.0679" rx="2.5" ry="2.5" style="stroke:#181818;stroke-width:0.5;" width="40" x="182" y="45.0679"/><text fill="#000000" font-family="sans-serif" font-size="14" lengthAdjust="spacing" textLength="26" x="189" y="67.0339">Bob</text><rect fill="#E2E2F0" height="33.0679" rx="2.5" ry="2.5" style="stroke:#181818;stroke-width:0.5;" width="40" x="182" y="199.2539"/><text fill="#000000" font-family="sans-serif" font-size="14" lengthAdjust="spacing" textLength="26" x="189" y="221.2198">Bob</text><polygon fill="#181818" points="190,108.8419,200,112.8419,190,116.8419,194,112.8419" style="stroke:#181818;stroke-width:1.0;"/><line style="stroke:#181818;stroke-width:1.0;" x1="28" x2="196" y1="112.8419" y2="112.8419"/><text fill="#000000" font-family="sans-serif" font-size="13" lengthAdjust="spacing" textLength="141" x="35" y="107.0328">Authentication Request</text><path d="M207,125.8419 L207,152.8419 L342,152.8419 L342,135.8419 L332,125.8419 L207,125.8419 " fill="#FEFFDD" style="stroke:#181818;stroke-width:0.5;"/><path d="M332,125.8419 L332,135.8419 L342,135.8419 L332,125.8419 " fill="#FEFFDD" style="stroke:#181818;stroke-width:0.5;"/><text fill="#000000" font-family="sans-serif" font-size="13" lengthAdjust="spacing" textLength="114" x="213" y="144.7389">Bob thinks about it</text><polygon fill="#181818" points="39,178.2539,29,182.2539,39,186.2539,35,182.2539" style="stroke:#181818;stroke-width:1.0;"/><line style="stroke:#181818;stroke-width:1.0;" x1="33" x2="201" y1="182.2539" y2="182.2539"/><text fill="#000000" font-family="sans-serif" font-size="13" lengthAdjust="spacing" textLength="150" x="45" y="176.4449">Authentication Response</text><!--SRC=[RSon3O0m34JHFbDu0HQWY1H6W0b8P8W5ie5SzYTG8fehJayVWfqfL6HMI9eXfZJnMLaJEnTsITpvmMB_HUE32fmQc2vPCyWMUcKRGXRT2itHAaZWsjVvD_TJAeTfuHi0]--></g></svg>